<mxfile host="app.diagrams.net" modified="2023-08-18T12:39:25.500Z" agent="Mozilla/5.0 (X11; Linux x86_64; rv:109.0) Gecko/20100101 Firefox/116.0" etag="_95jRR5RRQfIJg7YpF77" version="21.2.1" type="device">
  <diagram name="Page-1" id="5_d4wh0Xv4MuoWFGOAsZ">
    <mxGraphModel dx="1295" dy="964" grid="0" gridSize="10" guides="1" tooltips="1" connect="1" arrows="1" fold="1" page="0" pageScale="1" pageWidth="850" pageHeight="1100" math="0" shadow="0">
      <root>
        <mxCell id="0" />
        <mxCell id="1" parent="0" />
        <mxCell id="PkYwKs-KA-kLoRpHZBZQ-34" style="edgeStyle=orthogonalEdgeStyle;rounded=0;sketch=1;hachureGap=4;jiggle=2;curveFitting=1;orthogonalLoop=1;jettySize=auto;html=1;exitX=0.5;exitY=0;exitDx=0;exitDy=0;exitPerimeter=0;entryX=0;entryY=0.5;entryDx=0;entryDy=0;strokeColor=#788AA3;fontFamily=Architects Daughter;fontSource=https%3A%2F%2Ffonts.googleapis.com%2Fcss%3Ffamily%3DArchitects%2BDaughter;fontSize=16;fontColor=#46495D;fillColor=#B2C9AB;strokeWidth=2;curved=1;endArrow=classic;endFill=1;startArrow=none;startFill=0;" edge="1" parent="1" source="PkYwKs-KA-kLoRpHZBZQ-5" target="PkYwKs-KA-kLoRpHZBZQ-6">
          <mxGeometry relative="1" as="geometry" />
        </mxCell>
        <mxCell id="PkYwKs-KA-kLoRpHZBZQ-5" value="User" style="shape=umlActor;verticalLabelPosition=bottom;verticalAlign=top;html=1;outlineConnect=0;sketch=1;hachureGap=4;jiggle=2;curveFitting=1;strokeColor=#788AA3;fontFamily=Architects Daughter;fontSource=https%3A%2F%2Ffonts.googleapis.com%2Fcss%3Ffamily%3DArchitects%2BDaughter;fontSize=20;fontColor=#46495D;fillColor=#B2C9AB;" vertex="1" parent="1">
          <mxGeometry x="190" y="390" width="30" height="60" as="geometry" />
        </mxCell>
        <mxCell id="PkYwKs-KA-kLoRpHZBZQ-36" style="edgeStyle=orthogonalEdgeStyle;rounded=0;sketch=1;hachureGap=4;jiggle=2;curveFitting=1;orthogonalLoop=1;jettySize=auto;html=1;exitX=0.25;exitY=1;exitDx=0;exitDy=0;strokeColor=#788AA3;fontFamily=Architects Daughter;fontSource=https%3A%2F%2Ffonts.googleapis.com%2Fcss%3Ffamily%3DArchitects%2BDaughter;fontSize=16;fontColor=#46495D;fillColor=#B2C9AB;curved=1;strokeWidth=2;entryX=0.25;entryY=0;entryDx=0;entryDy=0;" edge="1" parent="1" source="PkYwKs-KA-kLoRpHZBZQ-6" target="PkYwKs-KA-kLoRpHZBZQ-18">
          <mxGeometry relative="1" as="geometry" />
        </mxCell>
        <mxCell id="PkYwKs-KA-kLoRpHZBZQ-6" value="OIDC provider" style="rounded=0;whiteSpace=wrap;html=1;sketch=1;hachureGap=4;jiggle=2;curveFitting=1;strokeColor=#6c8ebf;fontFamily=Architects Daughter;fontSource=https%3A%2F%2Ffonts.googleapis.com%2Fcss%3Ffamily%3DArchitects%2BDaughter;fontSize=20;fillColor=#dae8fc;gradientColor=#7ea6e0;" vertex="1" parent="1">
          <mxGeometry x="390" y="190" width="120" height="60" as="geometry" />
        </mxCell>
        <mxCell id="PkYwKs-KA-kLoRpHZBZQ-30" value="" style="group" vertex="1" connectable="0" parent="1">
          <mxGeometry x="310" y="340" width="220" height="130" as="geometry" />
        </mxCell>
        <mxCell id="PkYwKs-KA-kLoRpHZBZQ-8" value="&lt;div align=&quot;left&quot;&gt;&amp;nbsp;&amp;nbsp; Kubernetes pod&lt;br&gt;&lt;/div&gt;" style="rounded=1;whiteSpace=wrap;html=1;sketch=1;hachureGap=4;jiggle=2;curveFitting=1;strokeColor=#ae4132;fontFamily=Architects Daughter;fontSource=https%3A%2F%2Ffonts.googleapis.com%2Fcss%3Ffamily%3DArchitects%2BDaughter;fontSize=20;fillColor=#fad9d5;align=left;glass=0;verticalAlign=top;" vertex="1" parent="PkYwKs-KA-kLoRpHZBZQ-30">
          <mxGeometry width="220" height="130" as="geometry" />
        </mxCell>
        <mxCell id="PkYwKs-KA-kLoRpHZBZQ-4" value="&lt;div&gt;Frontend&lt;/div&gt;&lt;div&gt;App&lt;br&gt;&lt;/div&gt;" style="rounded=0;whiteSpace=wrap;html=1;sketch=1;hachureGap=4;jiggle=2;curveFitting=1;strokeColor=#36393d;fontFamily=Architects Daughter;fontSource=https%3A%2F%2Ffonts.googleapis.com%2Fcss%3Ffamily%3DArchitects%2BDaughter;fontSize=20;fillColor=#cdeb8b;" vertex="1" parent="PkYwKs-KA-kLoRpHZBZQ-30">
          <mxGeometry x="30" y="54.285714285714334" width="120" height="51.42857142857142" as="geometry" />
        </mxCell>
        <mxCell id="PkYwKs-KA-kLoRpHZBZQ-16" value="route" style="rounded=0;whiteSpace=wrap;html=1;sketch=1;hachureGap=4;jiggle=2;curveFitting=1;strokeColor=#82b366;fontFamily=Architects Daughter;fontSource=https%3A%2F%2Ffonts.googleapis.com%2Fcss%3Ffamily%3DArchitects%2BDaughter;fontSize=20;fillColor=#d5e8d4;gradientColor=#97d077;horizontal=0;" vertex="1" parent="PkYwKs-KA-kLoRpHZBZQ-30">
          <mxGeometry y="54.285714285714334" width="30" height="51.42857142857142" as="geometry" />
        </mxCell>
        <mxCell id="PkYwKs-KA-kLoRpHZBZQ-31" value="" style="group" vertex="1" connectable="0" parent="1">
          <mxGeometry x="590" y="340" width="370" height="130" as="geometry" />
        </mxCell>
        <mxCell id="PkYwKs-KA-kLoRpHZBZQ-15" value="&lt;div align=&quot;left&quot;&gt;&amp;nbsp;&amp;nbsp; Kubernetes pod&lt;br&gt;&lt;/div&gt;" style="rounded=1;whiteSpace=wrap;html=1;sketch=1;hachureGap=4;jiggle=2;curveFitting=1;strokeColor=#ae4132;fontFamily=Architects Daughter;fontSource=https%3A%2F%2Ffonts.googleapis.com%2Fcss%3Ffamily%3DArchitects%2BDaughter;fontSize=20;fillColor=#fad9d5;align=left;glass=0;verticalAlign=top;" vertex="1" parent="PkYwKs-KA-kLoRpHZBZQ-31">
          <mxGeometry width="370" height="130" as="geometry" />
        </mxCell>
        <mxCell id="PkYwKs-KA-kLoRpHZBZQ-41" style="edgeStyle=orthogonalEdgeStyle;rounded=0;sketch=1;hachureGap=4;jiggle=2;curveFitting=1;orthogonalLoop=1;jettySize=auto;html=1;exitX=1;exitY=0.5;exitDx=0;exitDy=0;entryX=0;entryY=0.5;entryDx=0;entryDy=0;strokeColor=#788AA3;fontFamily=Architects Daughter;fontSource=https%3A%2F%2Ffonts.googleapis.com%2Fcss%3Ffamily%3DArchitects%2BDaughter;fontSize=16;fontColor=#46495D;fillColor=#B2C9AB;strokeWidth=2;startArrow=classic;startFill=1;" edge="1" parent="PkYwKs-KA-kLoRpHZBZQ-31" source="PkYwKs-KA-kLoRpHZBZQ-18" target="PkYwKs-KA-kLoRpHZBZQ-25">
          <mxGeometry relative="1" as="geometry" />
        </mxCell>
        <mxCell id="PkYwKs-KA-kLoRpHZBZQ-18" value="Auth proxy" style="rounded=0;whiteSpace=wrap;html=1;sketch=1;hachureGap=4;jiggle=2;curveFitting=1;strokeColor=#36393d;fontFamily=Architects Daughter;fontSource=https%3A%2F%2Ffonts.googleapis.com%2Fcss%3Ffamily%3DArchitects%2BDaughter;fontSize=20;fillColor=#cdeb8b;" vertex="1" parent="PkYwKs-KA-kLoRpHZBZQ-31">
          <mxGeometry x="30" y="50" width="120" height="60" as="geometry" />
        </mxCell>
        <mxCell id="PkYwKs-KA-kLoRpHZBZQ-19" value="route" style="rounded=0;whiteSpace=wrap;html=1;sketch=1;hachureGap=4;jiggle=2;curveFitting=1;strokeColor=#82b366;fontFamily=Architects Daughter;fontSource=https%3A%2F%2Ffonts.googleapis.com%2Fcss%3Ffamily%3DArchitects%2BDaughter;fontSize=20;fillColor=#d5e8d4;gradientColor=#97d077;horizontal=0;" vertex="1" parent="PkYwKs-KA-kLoRpHZBZQ-31">
          <mxGeometry y="50" width="30" height="60" as="geometry" />
        </mxCell>
        <mxCell id="PkYwKs-KA-kLoRpHZBZQ-21" value="Backend app" style="rounded=0;whiteSpace=wrap;html=1;sketch=1;hachureGap=4;jiggle=2;curveFitting=1;strokeColor=#36393d;fontFamily=Architects Daughter;fontSource=https%3A%2F%2Ffonts.googleapis.com%2Fcss%3Ffamily%3DArchitects%2BDaughter;fontSize=20;fillColor=#cdeb8b;" vertex="1" parent="PkYwKs-KA-kLoRpHZBZQ-31">
          <mxGeometry x="230" y="50" width="120" height="60" as="geometry" />
        </mxCell>
        <mxCell id="PkYwKs-KA-kLoRpHZBZQ-25" value="local" style="rounded=0;whiteSpace=wrap;html=1;sketch=1;hachureGap=4;jiggle=2;curveFitting=1;strokeColor=#b85450;fontFamily=Architects Daughter;fontSource=https%3A%2F%2Ffonts.googleapis.com%2Fcss%3Ffamily%3DArchitects%2BDaughter;fontSize=20;fillColor=#f8cecc;gradientColor=#ea6b66;horizontal=0;" vertex="1" parent="PkYwKs-KA-kLoRpHZBZQ-31">
          <mxGeometry x="200" y="50" width="30" height="60" as="geometry" />
        </mxCell>
        <mxCell id="PkYwKs-KA-kLoRpHZBZQ-55" value="&lt;font style=&quot;font-size: 15px;&quot; face=&quot;Verdana&quot;&gt;&lt;font size=&quot;1&quot;&gt;&lt;b&gt;(9)&lt;/b&gt;&lt;/font&gt;&lt;/font&gt;" style="text;html=1;align=center;verticalAlign=middle;resizable=0;points=[];autosize=1;strokeColor=none;fillColor=none;fontSize=20;fontFamily=Architects Daughter;fontColor=#46495D;" vertex="1" parent="PkYwKs-KA-kLoRpHZBZQ-31">
          <mxGeometry x="155" y="45" width="40" height="40" as="geometry" />
        </mxCell>
        <mxCell id="PkYwKs-KA-kLoRpHZBZQ-35" value="Enter credentials" style="edgeStyle=orthogonalEdgeStyle;rounded=0;sketch=1;hachureGap=4;jiggle=2;curveFitting=1;orthogonalLoop=1;jettySize=auto;html=1;exitX=1;exitY=0.5;exitDx=0;exitDy=0;entryX=0.5;entryY=0;entryDx=0;entryDy=0;strokeColor=#788AA3;fontFamily=Architects Daughter;fontSource=https%3A%2F%2Ffonts.googleapis.com%2Fcss%3Ffamily%3DArchitects%2BDaughter;fontSize=16;fontColor=#46495D;fillColor=#B2C9AB;curved=1;strokeWidth=2;" edge="1" parent="1" source="PkYwKs-KA-kLoRpHZBZQ-6" target="PkYwKs-KA-kLoRpHZBZQ-6">
          <mxGeometry relative="1" as="geometry">
            <Array as="points">
              <mxPoint x="530" y="220" />
              <mxPoint x="530" y="140" />
              <mxPoint x="450" y="140" />
            </Array>
          </mxGeometry>
        </mxCell>
        <mxCell id="PkYwKs-KA-kLoRpHZBZQ-37" style="edgeStyle=orthogonalEdgeStyle;rounded=0;sketch=1;hachureGap=4;jiggle=2;curveFitting=1;orthogonalLoop=1;jettySize=auto;html=1;exitX=0;exitY=0.5;exitDx=0;exitDy=0;entryX=1;entryY=0.5;entryDx=0;entryDy=0;strokeColor=#788AA3;fontFamily=Architects Daughter;fontSource=https%3A%2F%2Ffonts.googleapis.com%2Fcss%3Ffamily%3DArchitects%2BDaughter;fontSize=16;fontColor=#46495D;fillColor=#B2C9AB;curved=1;strokeWidth=2;" edge="1" parent="1" source="PkYwKs-KA-kLoRpHZBZQ-19" target="PkYwKs-KA-kLoRpHZBZQ-4">
          <mxGeometry relative="1" as="geometry" />
        </mxCell>
        <mxCell id="PkYwKs-KA-kLoRpHZBZQ-40" style="edgeStyle=orthogonalEdgeStyle;rounded=0;sketch=1;hachureGap=4;jiggle=2;curveFitting=1;orthogonalLoop=1;jettySize=auto;html=1;exitX=1;exitY=0.25;exitDx=0;exitDy=0;entryX=0;entryY=0.25;entryDx=0;entryDy=0;strokeColor=#788AA3;fontFamily=Architects Daughter;fontSource=https%3A%2F%2Ffonts.googleapis.com%2Fcss%3Ffamily%3DArchitects%2BDaughter;fontSize=16;fontColor=#46495D;fillColor=#B2C9AB;strokeWidth=2;curved=1;" edge="1" parent="1" source="PkYwKs-KA-kLoRpHZBZQ-4" target="PkYwKs-KA-kLoRpHZBZQ-19">
          <mxGeometry relative="1" as="geometry" />
        </mxCell>
        <mxCell id="PkYwKs-KA-kLoRpHZBZQ-42" style="edgeStyle=orthogonalEdgeStyle;rounded=0;sketch=1;hachureGap=4;jiggle=2;curveFitting=1;orthogonalLoop=1;jettySize=auto;html=1;exitX=0;exitY=0.5;exitDx=0;exitDy=0;entryX=0.5;entryY=0.5;entryDx=0;entryDy=0;entryPerimeter=0;strokeColor=#788AA3;fontFamily=Architects Daughter;fontSource=https%3A%2F%2Ffonts.googleapis.com%2Fcss%3Ffamily%3DArchitects%2BDaughter;fontSize=16;fontColor=#46495D;fillColor=#B2C9AB;strokeWidth=2;startArrow=classic;startFill=1;" edge="1" parent="1" source="PkYwKs-KA-kLoRpHZBZQ-16" target="PkYwKs-KA-kLoRpHZBZQ-5">
          <mxGeometry relative="1" as="geometry" />
        </mxCell>
        <mxCell id="PkYwKs-KA-kLoRpHZBZQ-44" style="edgeStyle=orthogonalEdgeStyle;rounded=0;sketch=1;hachureGap=4;jiggle=2;curveFitting=1;orthogonalLoop=1;jettySize=auto;html=1;exitX=1;exitY=0.75;exitDx=0;exitDy=0;entryX=0;entryY=0.75;entryDx=0;entryDy=0;strokeColor=#788AA3;fontFamily=Architects Daughter;fontSource=https%3A%2F%2Ffonts.googleapis.com%2Fcss%3Ffamily%3DArchitects%2BDaughter;fontSize=16;fontColor=#46495D;fillColor=#B2C9AB;curved=1;strokeWidth=2;" edge="1" parent="1" source="PkYwKs-KA-kLoRpHZBZQ-4" target="PkYwKs-KA-kLoRpHZBZQ-19">
          <mxGeometry relative="1" as="geometry" />
        </mxCell>
        <mxCell id="PkYwKs-KA-kLoRpHZBZQ-45" style="edgeStyle=orthogonalEdgeStyle;rounded=0;sketch=1;hachureGap=4;jiggle=2;curveFitting=1;orthogonalLoop=1;jettySize=auto;html=1;exitX=0.5;exitY=0;exitDx=0;exitDy=0;entryX=0.75;entryY=1;entryDx=0;entryDy=0;strokeColor=#788AA3;fontFamily=Architects Daughter;fontSource=https%3A%2F%2Ffonts.googleapis.com%2Fcss%3Ffamily%3DArchitects%2BDaughter;fontSize=16;fontColor=#46495D;fillColor=#B2C9AB;curved=1;strokeWidth=2;startArrow=classic;startFill=1;" edge="1" parent="1" source="PkYwKs-KA-kLoRpHZBZQ-18" target="PkYwKs-KA-kLoRpHZBZQ-6">
          <mxGeometry relative="1" as="geometry">
            <Array as="points">
              <mxPoint x="680" y="300" />
              <mxPoint x="480" y="300" />
            </Array>
          </mxGeometry>
        </mxCell>
        <mxCell id="PkYwKs-KA-kLoRpHZBZQ-47" value="&lt;font style=&quot;font-size: 15px;&quot; face=&quot;Verdana&quot;&gt;&lt;font size=&quot;1&quot;&gt;&lt;b&gt;(1)&lt;/b&gt;&lt;/font&gt;&lt;/font&gt;" style="text;html=1;align=center;verticalAlign=middle;resizable=0;points=[];autosize=1;strokeColor=none;fillColor=none;fontSize=20;fontFamily=Architects Daughter;fontColor=#46495D;" vertex="1" parent="1">
          <mxGeometry x="533" y="374" width="36" height="36" as="geometry" />
        </mxCell>
        <mxCell id="PkYwKs-KA-kLoRpHZBZQ-48" value="&lt;font style=&quot;font-size: 15px;&quot; face=&quot;Verdana&quot;&gt;&lt;font size=&quot;1&quot;&gt;&lt;b&gt;(2)&lt;/b&gt;&lt;/font&gt;&lt;/font&gt;" style="text;html=1;align=center;verticalAlign=middle;resizable=0;points=[];autosize=1;strokeColor=none;fillColor=none;fontSize=20;fontFamily=Architects Daughter;fontColor=#46495D;" vertex="1" parent="1">
          <mxGeometry x="545" y="392" width="36" height="36" as="geometry" />
        </mxCell>
        <mxCell id="PkYwKs-KA-kLoRpHZBZQ-50" value="&lt;font style=&quot;font-size: 15px;&quot; face=&quot;Verdana&quot;&gt;&lt;font size=&quot;1&quot;&gt;&lt;b&gt;(3)&lt;/b&gt;&lt;/font&gt;&lt;/font&gt;" style="text;html=1;align=center;verticalAlign=middle;resizable=0;points=[];autosize=1;strokeColor=none;fillColor=none;fontSize=20;fontFamily=Architects Daughter;fontColor=#46495D;" vertex="1" parent="1">
          <mxGeometry x="212" y="237" width="36" height="36" as="geometry" />
        </mxCell>
        <mxCell id="PkYwKs-KA-kLoRpHZBZQ-51" value="&lt;font style=&quot;font-size: 15px;&quot; face=&quot;Verdana&quot;&gt;&lt;font size=&quot;1&quot;&gt;&lt;b&gt;(4)&lt;/b&gt;&lt;/font&gt;&lt;/font&gt;" style="text;html=1;align=center;verticalAlign=middle;resizable=0;points=[];autosize=1;strokeColor=none;fillColor=none;fontSize=20;fontFamily=Architects Daughter;fontColor=#46495D;" vertex="1" parent="1">
          <mxGeometry x="474" y="137" width="36" height="36" as="geometry" />
        </mxCell>
        <mxCell id="PkYwKs-KA-kLoRpHZBZQ-52" value="&lt;font style=&quot;font-size: 15px;&quot; face=&quot;Verdana&quot;&gt;&lt;font size=&quot;1&quot;&gt;&lt;b&gt;(7)&lt;/b&gt;&lt;/font&gt;&lt;/font&gt;" style="text;html=1;align=center;verticalAlign=middle;resizable=0;points=[];autosize=1;strokeColor=none;fillColor=none;fontSize=20;fontFamily=Architects Daughter;fontColor=#46495D;" vertex="1" parent="1">
          <mxGeometry x="418" y="478" width="40" height="40" as="geometry" />
        </mxCell>
        <mxCell id="PkYwKs-KA-kLoRpHZBZQ-53" value="&lt;font style=&quot;font-size: 15px;&quot; face=&quot;Verdana&quot;&gt;&lt;font size=&quot;1&quot;&gt;&lt;b&gt;(5)&lt;/b&gt;&lt;/font&gt;&lt;/font&gt;" style="text;html=1;align=center;verticalAlign=middle;resizable=0;points=[];autosize=1;strokeColor=none;fillColor=none;fontSize=20;fontFamily=Architects Daughter;fontColor=#46495D;" vertex="1" parent="1">
          <mxGeometry x="410" y="285" width="36" height="36" as="geometry" />
        </mxCell>
        <mxCell id="PkYwKs-KA-kLoRpHZBZQ-54" value="&lt;font style=&quot;font-size: 15px;&quot; face=&quot;Verdana&quot;&gt;&lt;font size=&quot;1&quot;&gt;&lt;b&gt;(6)&lt;/b&gt;&lt;/font&gt;&lt;/font&gt;" style="text;html=1;align=center;verticalAlign=middle;resizable=0;points=[];autosize=1;strokeColor=none;fillColor=none;fontSize=20;fontFamily=Architects Daughter;fontColor=#46495D;" vertex="1" parent="1">
          <mxGeometry x="528" y="283" width="40" height="40" as="geometry" />
        </mxCell>
        <mxCell id="PkYwKs-KA-kLoRpHZBZQ-56" style="edgeStyle=orthogonalEdgeStyle;rounded=0;sketch=1;hachureGap=4;jiggle=2;curveFitting=1;orthogonalLoop=1;jettySize=auto;html=1;exitX=0.25;exitY=1;exitDx=0;exitDy=0;entryX=1;entryY=1;entryDx=0;entryDy=0;entryPerimeter=0;strokeColor=#788AA3;fontFamily=Architects Daughter;fontSource=https%3A%2F%2Ffonts.googleapis.com%2Fcss%3Ffamily%3DArchitects%2BDaughter;fontSize=16;fontColor=#46495D;fillColor=#B2C9AB;curved=1;strokeWidth=2;" edge="1" parent="1" source="PkYwKs-KA-kLoRpHZBZQ-18" target="PkYwKs-KA-kLoRpHZBZQ-5">
          <mxGeometry relative="1" as="geometry">
            <Array as="points">
              <mxPoint x="650" y="510" />
              <mxPoint x="220" y="510" />
            </Array>
          </mxGeometry>
        </mxCell>
        <mxCell id="PkYwKs-KA-kLoRpHZBZQ-58" value="&lt;font style=&quot;font-size: 15px;&quot; face=&quot;Verdana&quot;&gt;&lt;font size=&quot;1&quot;&gt;&lt;b&gt;(8)&lt;/b&gt;&lt;/font&gt;&lt;/font&gt;" style="text;html=1;align=center;verticalAlign=middle;resizable=0;points=[];autosize=1;strokeColor=none;fillColor=none;fontSize=20;fontFamily=Architects Daughter;fontColor=#46495D;" vertex="1" parent="1">
          <mxGeometry x="532" y="407" width="36" height="36" as="geometry" />
        </mxCell>
      </root>
    </mxGraphModel>
  </diagram>
</mxfile>
